<mxfile host="65bd71144e">
    <diagram id="z08SCOJus2c5baWxxvXj" name="工作空间用例">
        <mxGraphModel dx="1016" dy="1847" grid="1" gridSize="10" guides="1" tooltips="1" connect="1" arrows="1" fold="1" page="1" pageScale="1" pageWidth="827" pageHeight="1169" math="0" shadow="0">
            <root>
                <mxCell id="0"/>
                <mxCell id="1" parent="0"/>
                <mxCell id="HOlIEd9ZsSH4kJcwTDjU-12" style="edgeStyle=none;html=1;endArrow=none;endFill=0;" parent="1" source="HOlIEd9ZsSH4kJcwTDjU-1" target="HOlIEd9ZsSH4kJcwTDjU-2" edge="1">
                    <mxGeometry relative="1" as="geometry"/>
                </mxCell>
                <mxCell id="oLm4Mt3seK01VhrrrZtw-1" style="edgeStyle=none;html=1;endArrow=none;endFill=0;" parent="1" source="HOlIEd9ZsSH4kJcwTDjU-1" target="HOlIEd9ZsSH4kJcwTDjU-5" edge="1">
                    <mxGeometry relative="1" as="geometry"/>
                </mxCell>
                <mxCell id="HOlIEd9ZsSH4kJcwTDjU-1" value="开发者" style="shape=umlActor;verticalLabelPosition=bottom;verticalAlign=top;html=1;" parent="1" vertex="1">
                    <mxGeometry x="143" y="-820" width="30" height="60" as="geometry"/>
                </mxCell>
                <mxCell id="HOlIEd9ZsSH4kJcwTDjU-9" style="edgeStyle=none;html=1;endArrow=none;endFill=0;" parent="1" source="HOlIEd9ZsSH4kJcwTDjU-2" target="HOlIEd9ZsSH4kJcwTDjU-6" edge="1">
                    <mxGeometry relative="1" as="geometry"/>
                </mxCell>
                <mxCell id="HOlIEd9ZsSH4kJcwTDjU-10" style="edgeStyle=none;html=1;endArrow=none;endFill=0;" parent="1" source="HOlIEd9ZsSH4kJcwTDjU-2" target="HOlIEd9ZsSH4kJcwTDjU-7" edge="1">
                    <mxGeometry relative="1" as="geometry"/>
                </mxCell>
                <mxCell id="HOlIEd9ZsSH4kJcwTDjU-11" style="edgeStyle=none;html=1;endArrow=none;endFill=0;" parent="1" source="HOlIEd9ZsSH4kJcwTDjU-2" target="HOlIEd9ZsSH4kJcwTDjU-8" edge="1">
                    <mxGeometry relative="1" as="geometry"/>
                </mxCell>
                <mxCell id="HOlIEd9ZsSH4kJcwTDjU-20" style="edgeStyle=none;html=1;endArrow=none;endFill=0;" parent="1" source="HOlIEd9ZsSH4kJcwTDjU-2" target="HOlIEd9ZsSH4kJcwTDjU-19" edge="1">
                    <mxGeometry relative="1" as="geometry"/>
                </mxCell>
                <mxCell id="HOlIEd9ZsSH4kJcwTDjU-2" value="创建工作空间" style="ellipse;whiteSpace=wrap;html=1;" parent="1" vertex="1">
                    <mxGeometry x="223" y="-980" width="140" height="70" as="geometry"/>
                </mxCell>
                <mxCell id="oLm4Mt3seK01VhrrrZtw-5" style="edgeStyle=none;html=1;entryX=0;entryY=0.5;entryDx=0;entryDy=0;endArrow=none;endFill=0;" parent="1" source="HOlIEd9ZsSH4kJcwTDjU-5" target="oLm4Mt3seK01VhrrrZtw-2" edge="1">
                    <mxGeometry relative="1" as="geometry"/>
                </mxCell>
                <mxCell id="oLm4Mt3seK01VhrrrZtw-7" style="edgeStyle=none;html=1;endArrow=none;endFill=0;" parent="1" source="HOlIEd9ZsSH4kJcwTDjU-5" target="oLm4Mt3seK01VhrrrZtw-6" edge="1">
                    <mxGeometry relative="1" as="geometry"/>
                </mxCell>
                <mxCell id="oLm4Mt3seK01VhrrrZtw-9" style="edgeStyle=none;html=1;endArrow=none;endFill=0;" parent="1" source="HOlIEd9ZsSH4kJcwTDjU-5" target="oLm4Mt3seK01VhrrrZtw-8" edge="1">
                    <mxGeometry relative="1" as="geometry"/>
                </mxCell>
                <mxCell id="HOlIEd9ZsSH4kJcwTDjU-5" value="模板管理" style="ellipse;whiteSpace=wrap;html=1;" parent="1" vertex="1">
                    <mxGeometry x="323" y="-590" width="140" height="70" as="geometry"/>
                </mxCell>
                <mxCell id="HOlIEd9ZsSH4kJcwTDjU-14" style="edgeStyle=none;html=1;endArrow=none;endFill=0;" parent="1" source="HOlIEd9ZsSH4kJcwTDjU-6" target="HOlIEd9ZsSH4kJcwTDjU-13" edge="1">
                    <mxGeometry relative="1" as="geometry"/>
                </mxCell>
                <mxCell id="HOlIEd9ZsSH4kJcwTDjU-6" value="使用系统模板创建" style="ellipse;whiteSpace=wrap;html=1;" parent="1" vertex="1">
                    <mxGeometry x="383" y="-1080" width="140" height="70" as="geometry"/>
                </mxCell>
                <mxCell id="HOlIEd9ZsSH4kJcwTDjU-18" style="edgeStyle=none;html=1;endArrow=none;endFill=0;" parent="1" source="HOlIEd9ZsSH4kJcwTDjU-7" target="HOlIEd9ZsSH4kJcwTDjU-15" edge="1">
                    <mxGeometry relative="1" as="geometry"/>
                </mxCell>
                <mxCell id="oLm4Mt3seK01VhrrrZtw-11" style="edgeStyle=none;html=1;endArrow=none;endFill=0;" parent="1" source="HOlIEd9ZsSH4kJcwTDjU-7" target="oLm4Mt3seK01VhrrrZtw-10" edge="1">
                    <mxGeometry relative="1" as="geometry"/>
                </mxCell>
                <mxCell id="HOlIEd9ZsSH4kJcwTDjU-7" value="使用个人模板创建" style="ellipse;whiteSpace=wrap;html=1;" parent="1" vertex="1">
                    <mxGeometry x="443" y="-990" width="140" height="70" as="geometry"/>
                </mxCell>
                <mxCell id="HOlIEd9ZsSH4kJcwTDjU-17" style="edgeStyle=none;html=1;endArrow=none;endFill=0;" parent="1" source="HOlIEd9ZsSH4kJcwTDjU-8" target="HOlIEd9ZsSH4kJcwTDjU-16" edge="1">
                    <mxGeometry relative="1" as="geometry"/>
                </mxCell>
                <mxCell id="HOlIEd9ZsSH4kJcwTDjU-8" value="使用组织模板创建" style="ellipse;whiteSpace=wrap;html=1;" parent="1" vertex="1">
                    <mxGeometry x="443" y="-900" width="140" height="70" as="geometry"/>
                </mxCell>
                <mxCell id="HOlIEd9ZsSH4kJcwTDjU-13" value="查询检索系统模板" style="ellipse;whiteSpace=wrap;html=1;" parent="1" vertex="1">
                    <mxGeometry x="593" y="-1130" width="140" height="70" as="geometry"/>
                </mxCell>
                <mxCell id="HOlIEd9ZsSH4kJcwTDjU-15" value="查询检索个人保存的模板" style="ellipse;whiteSpace=wrap;html=1;" parent="1" vertex="1">
                    <mxGeometry x="643" y="-1030" width="140" height="70" as="geometry"/>
                </mxCell>
                <mxCell id="HOlIEd9ZsSH4kJcwTDjU-16" value="查询检索组织共享的模板" style="ellipse;whiteSpace=wrap;html=1;" parent="1" vertex="1">
                    <mxGeometry x="653" y="-866" width="140" height="70" as="geometry"/>
                </mxCell>
                <mxCell id="HOlIEd9ZsSH4kJcwTDjU-22" style="edgeStyle=none;html=1;endArrow=none;endFill=0;" parent="1" source="HOlIEd9ZsSH4kJcwTDjU-19" target="HOlIEd9ZsSH4kJcwTDjU-21" edge="1">
                    <mxGeometry relative="1" as="geometry"/>
                </mxCell>
                <mxCell id="HOlIEd9ZsSH4kJcwTDjU-19" value="自定义创建" style="ellipse;whiteSpace=wrap;html=1;" parent="1" vertex="1">
                    <mxGeometry x="383" y="-820" width="140" height="70" as="geometry"/>
                </mxCell>
                <mxCell id="HOlIEd9ZsSH4kJcwTDjU-21" value="保存为个人的模板" style="ellipse;whiteSpace=wrap;html=1;" parent="1" vertex="1">
                    <mxGeometry x="623" y="-770" width="140" height="70" as="geometry"/>
                </mxCell>
                <mxCell id="oLm4Mt3seK01VhrrrZtw-2" value="个人模板管理" style="ellipse;whiteSpace=wrap;html=1;" parent="1" vertex="1">
                    <mxGeometry x="603" y="-630" width="140" height="70" as="geometry"/>
                </mxCell>
                <mxCell id="oLm4Mt3seK01VhrrrZtw-6" value="共享管理" style="ellipse;whiteSpace=wrap;html=1;" parent="1" vertex="1">
                    <mxGeometry x="623" y="-550" width="140" height="70" as="geometry"/>
                </mxCell>
                <mxCell id="oLm4Mt3seK01VhrrrZtw-8" value="收藏管理" style="ellipse;whiteSpace=wrap;html=1;" parent="1" vertex="1">
                    <mxGeometry x="603" y="-470" width="140" height="70" as="geometry"/>
                </mxCell>
                <mxCell id="oLm4Mt3seK01VhrrrZtw-10" value="查询检索个人收藏的模板" style="ellipse;whiteSpace=wrap;html=1;" parent="1" vertex="1">
                    <mxGeometry x="643" y="-960" width="140" height="70" as="geometry"/>
                </mxCell>
                <mxCell id="kMwlhWzcdcD9orVHu4Mh-1" style="edgeStyle=none;html=1;endArrow=none;endFill=0;" parent="1" source="oLm4Mt3seK01VhrrrZtw-12" target="oLm4Mt3seK01VhrrrZtw-13" edge="1">
                    <mxGeometry relative="1" as="geometry"/>
                </mxCell>
                <mxCell id="oLm4Mt3seK01VhrrrZtw-12" value="开发者" style="shape=umlActor;verticalLabelPosition=bottom;verticalAlign=top;html=1;" parent="1" vertex="1">
                    <mxGeometry x="80" y="-250" width="30" height="60" as="geometry"/>
                </mxCell>
                <mxCell id="kMwlhWzcdcD9orVHu4Mh-2" style="edgeStyle=none;html=1;endArrow=none;endFill=0;" parent="1" source="oLm4Mt3seK01VhrrrZtw-13" target="oLm4Mt3seK01VhrrrZtw-14" edge="1">
                    <mxGeometry relative="1" as="geometry"/>
                </mxCell>
                <mxCell id="kMwlhWzcdcD9orVHu4Mh-3" style="edgeStyle=none;html=1;entryX=0;entryY=0.5;entryDx=0;entryDy=0;endArrow=none;endFill=0;" parent="1" source="oLm4Mt3seK01VhrrrZtw-13" target="oLm4Mt3seK01VhrrrZtw-15" edge="1">
                    <mxGeometry relative="1" as="geometry"/>
                </mxCell>
                <mxCell id="kMwlhWzcdcD9orVHu4Mh-6" style="edgeStyle=none;html=1;endArrow=none;endFill=0;entryX=0;entryY=0.5;entryDx=0;entryDy=0;" parent="1" source="oLm4Mt3seK01VhrrrZtw-13" target="kMwlhWzcdcD9orVHu4Mh-5" edge="1">
                    <mxGeometry relative="1" as="geometry"/>
                </mxCell>
                <mxCell id="oLm4Mt3seK01VhrrrZtw-13" value="工作空间管理" style="ellipse;whiteSpace=wrap;html=1;" parent="1" vertex="1">
                    <mxGeometry x="190" y="-255" width="140" height="70" as="geometry"/>
                </mxCell>
                <mxCell id="oLm4Mt3seK01VhrrrZtw-14" value="查询和检索工作空间" style="ellipse;whiteSpace=wrap;html=1;" parent="1" vertex="1">
                    <mxGeometry x="400" y="-395" width="140" height="70" as="geometry"/>
                </mxCell>
                <mxCell id="kMwlhWzcdcD9orVHu4Mh-10" style="edgeStyle=none;html=1;endArrow=none;endFill=0;" parent="1" source="oLm4Mt3seK01VhrrrZtw-15" target="oLm4Mt3seK01VhrrrZtw-16" edge="1">
                    <mxGeometry relative="1" as="geometry"/>
                </mxCell>
                <mxCell id="kMwlhWzcdcD9orVHu4Mh-11" style="edgeStyle=none;html=1;endArrow=none;endFill=0;" parent="1" source="oLm4Mt3seK01VhrrrZtw-15" target="kMwlhWzcdcD9orVHu4Mh-8" edge="1">
                    <mxGeometry relative="1" as="geometry"/>
                </mxCell>
                <mxCell id="kMwlhWzcdcD9orVHu4Mh-12" style="edgeStyle=none;html=1;endArrow=none;endFill=0;" parent="1" source="oLm4Mt3seK01VhrrrZtw-13" target="kMwlhWzcdcD9orVHu4Mh-9" edge="1">
                    <mxGeometry relative="1" as="geometry"/>
                </mxCell>
                <mxCell id="kMwlhWzcdcD9orVHu4Mh-15" style="edgeStyle=none;html=1;fontFamily=Helvetica;fontSize=12;fontColor=default;endArrow=none;endFill=0;" parent="1" source="oLm4Mt3seK01VhrrrZtw-15" target="kMwlhWzcdcD9orVHu4Mh-14" edge="1">
                    <mxGeometry relative="1" as="geometry"/>
                </mxCell>
                <mxCell id="oLm4Mt3seK01VhrrrZtw-15" value="操作工作空间" style="ellipse;whiteSpace=wrap;html=1;" parent="1" vertex="1">
                    <mxGeometry x="414" y="-290" width="140" height="70" as="geometry"/>
                </mxCell>
                <mxCell id="oLm4Mt3seK01VhrrrZtw-16" value="停止" style="ellipse;whiteSpace=wrap;html=1;" parent="1" vertex="1">
                    <mxGeometry x="633" y="-350" width="140" height="70" as="geometry"/>
                </mxCell>
                <mxCell id="kMwlhWzcdcD9orVHu4Mh-5" value="销毁工作空间" style="ellipse;whiteSpace=wrap;html=1;rotation=0;" parent="1" vertex="1">
                    <mxGeometry x="414" y="-90" width="140" height="70" as="geometry"/>
                </mxCell>
                <mxCell id="kMwlhWzcdcD9orVHu4Mh-8" value="重启" style="ellipse;whiteSpace=wrap;html=1;" parent="1" vertex="1">
                    <mxGeometry x="643" y="-270" width="140" height="70" as="geometry"/>
                </mxCell>
                <mxCell id="kMwlhWzcdcD9orVHu4Mh-9" value="制作镜像" style="ellipse;whiteSpace=wrap;html=1;rotation=0;" parent="1" vertex="1">
                    <mxGeometry x="414" y="-185" width="140" height="70" as="geometry"/>
                </mxCell>
                <mxCell id="kMwlhWzcdcD9orVHu4Mh-14" value="挂载数据空间" style="ellipse;whiteSpace=wrap;html=1;" parent="1" vertex="1">
                    <mxGeometry x="633" y="-170" width="140" height="70" as="geometry"/>
                </mxCell>
            </root>
        </mxGraphModel>
    </diagram>
    <diagram id="66sdab3Ss3EKUlVvOgyS" name="使用webide用例">
        <mxGraphModel dx="1016" dy="678" grid="1" gridSize="10" guides="1" tooltips="1" connect="1" arrows="1" fold="1" page="1" pageScale="1" pageWidth="827" pageHeight="1169" math="0" shadow="0">
            <root>
                <mxCell id="0"/>
                <mxCell id="1" parent="0"/>
                <mxCell id="4B-nJIToo5zh3dw_JAMr-1" style="edgeStyle=none;html=1;fontFamily=Helvetica;fontSize=12;fontColor=default;endArrow=none;endFill=0;" parent="1" source="4B-nJIToo5zh3dw_JAMr-4" target="4B-nJIToo5zh3dw_JAMr-7" edge="1">
                    <mxGeometry relative="1" as="geometry"/>
                </mxCell>
                <mxCell id="4B-nJIToo5zh3dw_JAMr-2" style="edgeStyle=none;html=1;fontFamily=Helvetica;fontSize=12;fontColor=default;endArrow=none;endFill=0;" parent="1" source="4B-nJIToo5zh3dw_JAMr-4" target="4B-nJIToo5zh3dw_JAMr-8" edge="1">
                    <mxGeometry relative="1" as="geometry"/>
                </mxCell>
                <mxCell id="4B-nJIToo5zh3dw_JAMr-3" style="edgeStyle=none;html=1;fontFamily=Helvetica;fontSize=12;fontColor=default;endArrow=none;endFill=0;" parent="1" source="4B-nJIToo5zh3dw_JAMr-4" target="4B-nJIToo5zh3dw_JAMr-9" edge="1">
                    <mxGeometry relative="1" as="geometry"/>
                </mxCell>
                <mxCell id="4B-nJIToo5zh3dw_JAMr-4" value="打开WEB IDE" style="ellipse;whiteSpace=wrap;html=1;" parent="1" vertex="1">
                    <mxGeometry x="313" y="305" width="140" height="70" as="geometry"/>
                </mxCell>
                <mxCell id="4B-nJIToo5zh3dw_JAMr-5" style="edgeStyle=none;html=1;fontFamily=Helvetica;fontSize=12;fontColor=default;endArrow=none;endFill=0;" parent="1" source="4B-nJIToo5zh3dw_JAMr-6" target="4B-nJIToo5zh3dw_JAMr-4" edge="1">
                    <mxGeometry relative="1" as="geometry"/>
                </mxCell>
                <mxCell id="4B-nJIToo5zh3dw_JAMr-6" value="开发者" style="shape=umlActor;verticalLabelPosition=bottom;verticalAlign=top;html=1;" parent="1" vertex="1">
                    <mxGeometry x="190" y="310" width="30" height="60" as="geometry"/>
                </mxCell>
                <mxCell id="4B-nJIToo5zh3dw_JAMr-7" value="使用VSCode Web IDE" style="ellipse;whiteSpace=wrap;html=1;" parent="1" vertex="1">
                    <mxGeometry x="493" y="220" width="140" height="70" as="geometry"/>
                </mxCell>
                <mxCell id="4B-nJIToo5zh3dw_JAMr-8" value="使用IDEA Projector" style="ellipse;whiteSpace=wrap;html=1;" parent="1" vertex="1">
                    <mxGeometry x="513" y="310" width="140" height="70" as="geometry"/>
                </mxCell>
                <mxCell id="4B-nJIToo5zh3dw_JAMr-9" value="其他 WEB IDE" style="ellipse;whiteSpace=wrap;html=1;" parent="1" vertex="1">
                    <mxGeometry x="503" y="410" width="140" height="70" as="geometry"/>
                </mxCell>
            </root>
        </mxGraphModel>
    </diagram>
    <diagram id="2AYSEKrJ18y7uA789Gqk" name="数据空间用例">
        <mxGraphModel dx="1016" dy="-491" grid="1" gridSize="10" guides="1" tooltips="1" connect="1" arrows="1" fold="1" page="1" pageScale="1" pageWidth="827" pageHeight="1169" math="0" shadow="0">
            <root>
                <mxCell id="0"/>
                <mxCell id="1" parent="0"/>
                <mxCell id="i0_RB7x0jQIWeaOGivFl-1" style="edgeStyle=none;html=1;fontFamily=Helvetica;fontSize=12;fontColor=default;endArrow=none;endFill=0;" parent="1" source="i0_RB7x0jQIWeaOGivFl-5" target="i0_RB7x0jQIWeaOGivFl-10" edge="1">
                    <mxGeometry relative="1" as="geometry"/>
                </mxCell>
                <mxCell id="i0_RB7x0jQIWeaOGivFl-2" style="edgeStyle=none;html=1;fontFamily=Helvetica;fontSize=12;fontColor=default;endArrow=none;endFill=0;" parent="1" source="i0_RB7x0jQIWeaOGivFl-5" target="i0_RB7x0jQIWeaOGivFl-11" edge="1">
                    <mxGeometry relative="1" as="geometry"/>
                </mxCell>
                <mxCell id="i0_RB7x0jQIWeaOGivFl-3" style="edgeStyle=none;html=1;entryX=0;entryY=0;entryDx=0;entryDy=0;fontFamily=Helvetica;fontSize=12;fontColor=default;endArrow=none;endFill=0;" parent="1" source="i0_RB7x0jQIWeaOGivFl-5" target="i0_RB7x0jQIWeaOGivFl-15" edge="1">
                    <mxGeometry relative="1" as="geometry"/>
                </mxCell>
                <mxCell id="i0_RB7x0jQIWeaOGivFl-4" style="edgeStyle=none;html=1;fontFamily=Helvetica;fontSize=12;fontColor=default;endArrow=none;endFill=0;" parent="1" source="i0_RB7x0jQIWeaOGivFl-5" target="i0_RB7x0jQIWeaOGivFl-17" edge="1">
                    <mxGeometry relative="1" as="geometry"/>
                </mxCell>
                <mxCell id="i0_RB7x0jQIWeaOGivFl-5" value="数据空间管理" style="ellipse;whiteSpace=wrap;html=1;" parent="1" vertex="1">
                    <mxGeometry x="210" y="1400" width="140" height="70" as="geometry"/>
                </mxCell>
                <mxCell id="i0_RB7x0jQIWeaOGivFl-6" style="edgeStyle=none;html=1;entryX=0;entryY=0.5;entryDx=0;entryDy=0;fontFamily=Helvetica;fontSize=12;fontColor=default;endArrow=none;endFill=0;" parent="1" source="i0_RB7x0jQIWeaOGivFl-7" target="i0_RB7x0jQIWeaOGivFl-5" edge="1">
                    <mxGeometry relative="1" as="geometry"/>
                </mxCell>
                <mxCell id="i0_RB7x0jQIWeaOGivFl-7" value="开发者" style="shape=umlActor;verticalLabelPosition=bottom;verticalAlign=top;html=1;" parent="1" vertex="1">
                    <mxGeometry x="50" y="1405" width="30" height="60" as="geometry"/>
                </mxCell>
                <mxCell id="i0_RB7x0jQIWeaOGivFl-8" style="edgeStyle=none;html=1;fontFamily=Helvetica;fontSize=12;fontColor=default;endArrow=none;endFill=0;" parent="1" source="i0_RB7x0jQIWeaOGivFl-10" target="i0_RB7x0jQIWeaOGivFl-12" edge="1">
                    <mxGeometry relative="1" as="geometry"/>
                </mxCell>
                <mxCell id="i0_RB7x0jQIWeaOGivFl-9" style="edgeStyle=none;html=1;fontFamily=Helvetica;fontSize=12;fontColor=default;endArrow=none;endFill=0;" parent="1" source="i0_RB7x0jQIWeaOGivFl-10" target="i0_RB7x0jQIWeaOGivFl-13" edge="1">
                    <mxGeometry relative="1" as="geometry"/>
                </mxCell>
                <mxCell id="i0_RB7x0jQIWeaOGivFl-10" value="查看数据空间使用情况" style="ellipse;whiteSpace=wrap;html=1;strokeColor=default;fontFamily=Helvetica;fontSize=12;fontColor=default;fillColor=default;" parent="1" vertex="1">
                    <mxGeometry x="390" y="1360" width="140" height="70" as="geometry"/>
                </mxCell>
                <mxCell id="i0_RB7x0jQIWeaOGivFl-11" value="查询或检索数据空间" style="ellipse;whiteSpace=wrap;html=1;strokeColor=default;fontFamily=Helvetica;fontSize=12;fontColor=default;fillColor=default;" parent="1" vertex="1">
                    <mxGeometry x="400" y="1450" width="140" height="70" as="geometry"/>
                </mxCell>
                <mxCell id="i0_RB7x0jQIWeaOGivFl-12" value="查看容量和使用量" style="ellipse;whiteSpace=wrap;html=1;strokeColor=default;fontFamily=Helvetica;fontSize=12;fontColor=default;fillColor=default;" parent="1" vertex="1">
                    <mxGeometry x="570" y="1290" width="140" height="70" as="geometry"/>
                </mxCell>
                <mxCell id="i0_RB7x0jQIWeaOGivFl-13" value="查看挂载情况" style="ellipse;whiteSpace=wrap;html=1;strokeColor=default;fontFamily=Helvetica;fontSize=12;fontColor=default;fillColor=default;" parent="1" vertex="1">
                    <mxGeometry x="580" y="1380" width="140" height="70" as="geometry"/>
                </mxCell>
                <mxCell id="i0_RB7x0jQIWeaOGivFl-14" style="edgeStyle=none;html=1;entryX=0;entryY=0.5;entryDx=0;entryDy=0;fontFamily=Helvetica;fontSize=12;fontColor=default;endArrow=none;endFill=0;" parent="1" source="i0_RB7x0jQIWeaOGivFl-15" target="i0_RB7x0jQIWeaOGivFl-16" edge="1">
                    <mxGeometry relative="1" as="geometry"/>
                </mxCell>
                <mxCell id="i0_RB7x0jQIWeaOGivFl-15" value="操作工作空间" style="ellipse;whiteSpace=wrap;html=1;strokeColor=default;fontFamily=Helvetica;fontSize=12;fontColor=default;fillColor=default;" parent="1" vertex="1">
                    <mxGeometry x="400" y="1540" width="140" height="70" as="geometry"/>
                </mxCell>
                <mxCell id="i0_RB7x0jQIWeaOGivFl-16" value="删除" style="ellipse;whiteSpace=wrap;html=1;strokeColor=default;fontFamily=Helvetica;fontSize=12;fontColor=default;fillColor=default;" parent="1" vertex="1">
                    <mxGeometry x="580" y="1540" width="140" height="70" as="geometry"/>
                </mxCell>
                <mxCell id="i0_RB7x0jQIWeaOGivFl-17" value="创建数据空间" style="ellipse;whiteSpace=wrap;html=1;" parent="1" vertex="1">
                    <mxGeometry x="370" y="1250" width="140" height="70" as="geometry"/>
                </mxCell>
            </root>
        </mxGraphModel>
    </diagram>
    <diagram id="if0fcmthgcJSa3jssDdx" name="镜像用例">
        <mxGraphModel dx="1016" dy="-491" grid="1" gridSize="10" guides="1" tooltips="1" connect="1" arrows="1" fold="1" page="1" pageScale="1" pageWidth="827" pageHeight="1169" math="0" shadow="0">
            <root>
                <mxCell id="0"/>
                <mxCell id="1" parent="0"/>
                <mxCell id="rBPRq_LULaYjER44Cz1q-1" style="edgeStyle=none;html=1;entryX=0;entryY=0.5;entryDx=0;entryDy=0;fontFamily=Helvetica;fontSize=12;fontColor=default;endArrow=none;endFill=0;" parent="1" source="rBPRq_LULaYjER44Cz1q-3" target="rBPRq_LULaYjER44Cz1q-6" edge="1">
                    <mxGeometry relative="1" as="geometry"/>
                </mxCell>
                <mxCell id="rBPRq_LULaYjER44Cz1q-2" style="edgeStyle=none;html=1;entryX=0;entryY=0.5;entryDx=0;entryDy=0;fontFamily=Helvetica;fontSize=12;fontColor=default;endArrow=none;endFill=0;" parent="1" source="rBPRq_LULaYjER44Cz1q-3" target="rBPRq_LULaYjER44Cz1q-7" edge="1">
                    <mxGeometry relative="1" as="geometry"/>
                </mxCell>
                <mxCell id="rBPRq_LULaYjER44Cz1q-3" value="镜像管理" style="ellipse;whiteSpace=wrap;html=1;strokeColor=default;fontFamily=Helvetica;fontSize=12;fontColor=default;fillColor=default;" parent="1" vertex="1">
                    <mxGeometry x="230" y="1630" width="140" height="70" as="geometry"/>
                </mxCell>
                <mxCell id="rBPRq_LULaYjER44Cz1q-4" style="edgeStyle=none;html=1;fontFamily=Helvetica;fontSize=12;fontColor=default;endArrow=none;endFill=0;" parent="1" source="rBPRq_LULaYjER44Cz1q-5" target="rBPRq_LULaYjER44Cz1q-3" edge="1">
                    <mxGeometry relative="1" as="geometry"/>
                </mxCell>
                <mxCell id="rBPRq_LULaYjER44Cz1q-5" value="开发者" style="shape=umlActor;verticalLabelPosition=bottom;verticalAlign=top;html=1;" parent="1" vertex="1">
                    <mxGeometry x="100" y="1635" width="30" height="60" as="geometry"/>
                </mxCell>
                <mxCell id="rBPRq_LULaYjER44Cz1q-6" value="删除镜像" style="ellipse;whiteSpace=wrap;html=1;strokeColor=default;fontFamily=Helvetica;fontSize=12;fontColor=default;fillColor=default;" parent="1" vertex="1">
                    <mxGeometry x="440" y="1610" width="140" height="70" as="geometry"/>
                </mxCell>
                <mxCell id="rBPRq_LULaYjER44Cz1q-7" value="查询或检索镜像" style="ellipse;whiteSpace=wrap;html=1;strokeColor=default;fontFamily=Helvetica;fontSize=12;fontColor=default;fillColor=default;" parent="1" vertex="1">
                    <mxGeometry x="450" y="1695" width="140" height="70" as="geometry"/>
                </mxCell>
            </root>
        </mxGraphModel>
    </diagram>
    <diagram id="hiQXGUhUJo6dV3q_1Uk7" name="SSH密钥">
        <mxGraphModel dx="1016" dy="678" grid="1" gridSize="10" guides="1" tooltips="1" connect="1" arrows="1" fold="1" page="1" pageScale="1" pageWidth="827" pageHeight="1169" math="0" shadow="0">
            <root>
                <mxCell id="0"/>
                <mxCell id="1" parent="0"/>
                <mxCell id="YwE5s1U_d58DGGs2zHOK-5" style="edgeStyle=none;html=1;endArrow=none;endFill=0;" edge="1" parent="1" source="YwE5s1U_d58DGGs2zHOK-1" target="YwE5s1U_d58DGGs2zHOK-2">
                    <mxGeometry relative="1" as="geometry"/>
                </mxCell>
                <mxCell id="YwE5s1U_d58DGGs2zHOK-1" value="开发者" style="shape=umlActor;verticalLabelPosition=bottom;verticalAlign=top;html=1;" vertex="1" parent="1">
                    <mxGeometry x="130" y="300" width="30" height="60" as="geometry"/>
                </mxCell>
                <mxCell id="YwE5s1U_d58DGGs2zHOK-6" style="edgeStyle=none;html=1;endArrow=none;endFill=0;" edge="1" parent="1" source="YwE5s1U_d58DGGs2zHOK-2" target="YwE5s1U_d58DGGs2zHOK-3">
                    <mxGeometry relative="1" as="geometry"/>
                </mxCell>
                <mxCell id="YwE5s1U_d58DGGs2zHOK-7" style="edgeStyle=none;html=1;entryX=0;entryY=0.5;entryDx=0;entryDy=0;endArrow=none;endFill=0;" edge="1" parent="1" source="YwE5s1U_d58DGGs2zHOK-2" target="YwE5s1U_d58DGGs2zHOK-4">
                    <mxGeometry relative="1" as="geometry"/>
                </mxCell>
                <mxCell id="YwE5s1U_d58DGGs2zHOK-2" value="Git SSH密钥管理" style="ellipse;whiteSpace=wrap;html=1;" vertex="1" parent="1">
                    <mxGeometry x="260" y="295" width="140" height="70" as="geometry"/>
                </mxCell>
                <mxCell id="YwE5s1U_d58DGGs2zHOK-3" value="添加" style="ellipse;whiteSpace=wrap;html=1;" vertex="1" parent="1">
                    <mxGeometry x="444" y="250" width="140" height="70" as="geometry"/>
                </mxCell>
                <mxCell id="YwE5s1U_d58DGGs2zHOK-4" value="删除" style="ellipse;whiteSpace=wrap;html=1;" vertex="1" parent="1">
                    <mxGeometry x="444" y="360" width="140" height="70" as="geometry"/>
                </mxCell>
            </root>
        </mxGraphModel>
    </diagram>
</mxfile>